<svg id="Layer_1" data-name="Layer 1" xmlns="http://www.w3.org/2000/svg" viewBox="0 0 546.04 469.46"><defs><style>.cls-1{fill:#f7f4ef;}</style></defs><title>Longhouse Press Final</title><path d="M333.57,267.57c3-3.57,4.63-5.36,7.67-9a7.07,7.07,0,0,0,0-9.13,9,9,0,0,0-11.91-1.86,7.53,7.53,0,0,0-2.06,10.91A89.89,89.89,0,0,1,333.57,267.57Z"/><path d="M354.52,267.57a51.31,51.31,0,0,0,9.93-12.25,6.23,6.23,0,0,0-.45-6.95c-2.67-3.63-7.76-4.91-11.12-3.05s-4.4,6.32-2.51,10C353,260.39,354.05,263.07,354.52,267.57Z"/><path d="M375.48,267.57c5.95-4.67,10.6-11.42,11.38-19.09.82-12.15-10.62-11.69-14-9.08-2.22,1.71-2.05,5.49.06,9.16C375.51,254.63,378.41,260.91,375.48,267.57Z"/><path d="M233.46,192a6.39,6.39,0,0,0,6.33,6.46h.07a6.38,6.38,0,0,0,6.39-6.32c.4-34.45-17.31-52.22-32.23-61.07a82.34,82.34,0,0,0-32.38-10.77,6.39,6.39,0,0,0-1,12.75C182.82,133.21,234.08,138.05,233.46,192Z"/><path d="M503,319.76v-7.12h-.82a15.63,15.63,0,0,1-15.33-12.49,70.18,70.18,0,0,1-.12-27.25A61.46,61.46,0,0,1,493,254.83a5.83,5.83,0,0,0-1.51-7.76,5.22,5.22,0,0,0-7.2,1c-.92.63-6.18,3.79-21.53,5.55a22.17,22.17,0,0,0,3.73-13.08c-1.19-39-7.63-61.63-21.56-75.56-10.66-10.66-12.19-13.89-17.89-25.9-.77-1.63-1.6-3.4-2.54-5.34-13.78-28.67-34-48.16-61.83-59.49l-.43-.17a17.91,17.91,0,0,1-1.06-3.89c-.68-3.72-1.73-8.64-6.43-9a5.41,5.41,0,0,0-5.27,2.89,3.11,3.11,0,0,1,2.61-.58,2.88,2.88,0,0,1,2.2,2.79,4.28,4.28,0,0,1-2.56,4.07l-.34-.11a175.11,175.11,0,0,0-19.1-4.69l-.74-.14-.72-1.64c-3.33-7.72-8-17.83-17-15.63-4.22,1-7.56,4.94-8.28,9.77a5.88,5.88,0,0,1,4.57-3c2.67-.21,4.85,1.85,5.68,4.7a11,11,0,0,1,.43,3.46l-.61-.07c-5.81-.67-11.63-1.15-17.41-1.49l-.83,0-.13-.12a24.68,24.68,0,0,1-4.49-6.69c-2.66-5.23-6.38-12.07-12.56-10.14a8.09,8.09,0,0,0-5.34,7.17,4.11,4.11,0,0,1,3.05-2.27c1.85-.26,3.46,1.07,4.16,3a7.67,7.67,0,0,1-2.18,8.4h-.63c-3.05,0-6.07-.07-9-.07h-.76a29.89,29.89,0,0,1-4.11-5.11c-3.41-5.07-8.16-11.68-15.36-9.21a8.73,8.73,0,0,0-5.94,7.7,5,5,0,0,1,3.49-2.55,4.67,4.67,0,0,1,5.07,2.71,6.86,6.86,0,0,1-.66,7,4.19,4.19,0,0,0-.5,0c-4.72.34-9.41.82-14,1.44l-.67.09a18.13,18.13,0,0,1-4.48-3.62c-3-3.09-7.11-7.09-11.77-4.58a6,6,0,0,0-3.13,6,3.41,3.41,0,0,1,2.09-2.15,3.33,3.33,0,0,1,3.84,1.29,4.81,4.81,0,0,1,.24,5.3l-.37.08c-3.19.64-6.34,1.34-9.47,2.11l-.55.14A33.21,33.21,0,0,1,209,63.81c-4.13-4.18-9.75-9.57-15.05-5.85A8.1,8.1,0,0,0,191,66.42a4.1,4.1,0,0,1,2.22-3.09c1.68-.82,3.62,0,4.88,1.62a7.64,7.64,0,0,1,1.4,6.38,2.07,2.07,0,0,0-.4.13q-4.77,1.53-9.41,3.31c-.19.06-.38.14-.56.21a31.3,31.3,0,0,1-4.77-3.2c-4.64-3.6-10.93-8.2-15.69-3.82a8.1,8.1,0,0,0-1.77,8.77,4.09,4.09,0,0,1,1.79-3.36c1.56-1,3.59-.5,5.05,1A7.63,7.63,0,0,1,176,80.62l-.37.17q-5.28,2.5-10.32,5.31c-1.11-.73-2.5-1.6-4.23-2.66-8.29-5.06-45.13,2.3-57.56,35-4.44,11.68-6.76,27.22-7.47,43a6.08,6.08,0,0,0,0,.61,4.81,4.81,0,0,1-.45.66,11.1,11.1,0,0,1-3.06,2.43c-2.41,1.44-5.55,3.45-4.59,6.81a4,4,0,0,0,3.38,2.9,2.3,2.3,0,0,1-1.09-1.66A2.14,2.14,0,0,1,91.56,171a3.36,3.36,0,0,1,4.22,1.67v.48q0,2.4.06,4.77c0,.24,0,.47,0,.71a29.56,29.56,0,0,1-5.08,3.95c-5.12,3.34-11.8,8-9.43,15.23A8.72,8.72,0,0,0,89,203.84a5,5,0,0,1-2.5-3.53,4.66,4.66,0,0,1,2.79-5A7,7,0,0,1,97,196.6l.06.6c0,.48.11,1,.16,1.43,0,.12,0,.24,0,.35s0,.37,0,.55A14.08,14.08,0,0,1,93.88,203c-2.76,2.14-6.33,5.1-4.64,9.1a5,5,0,0,0,4.61,3.08,2.83,2.83,0,0,1-1.59-1.89,2.65,2.65,0,0,1,1.35-3,4,4,0,0,1,4.77.65c0,.12,0,.25.05.37.14,1,.3,2,.46,2.94l.15.87a31.76,31.76,0,0,1-3,4.94c-3.49,5-7.93,11.84-3,17.66a8.72,8.72,0,0,0,9.33,2.75,5,5,0,0,1-3.65-2.33,4.66,4.66,0,0,1,.7-5.71,6.55,6.55,0,0,1,3.47-2l.16.46c.4,1.15.8,2.27,1.22,3.33a14.73,14.73,0,0,1-14.83,20c-20.16-1.52-26.67-5.44-27.7-6.14a5.21,5.21,0,0,0-7.19-1,5.82,5.82,0,0,0-1.53,7.74,61.7,61.7,0,0,1,6.21,18.09,70.79,70.79,0,0,1-3.82,39.74H43v7.12h0a22.4,22.4,0,0,0,22.41,22.41H92.05a7.73,7.73,0,0,0,7.73-7.74,2.87,2.87,0,0,1,2.88-2.88H230.5a41.42,41.42,0,0,1,8.5.88l.28.06a15.21,15.21,0,0,1,.55,3.07c.34,3.2.91,7.44,4.86,8.07a4.6,4.6,0,0,0,4.66-2.1,2.62,2.62,0,0,1-2.25.32,2.47,2.47,0,0,1-1.69-2.52,3.82,3.82,0,0,1,3.39-3.54l.4.2a41.06,41.06,0,0,1,9,6.13c.07.07.15.13.22.21a16.19,16.19,0,0,1-.9,2.95c-1.17,3-2.59,7,.64,9.4a4.57,4.57,0,0,0,5.1.25,2.64,2.64,0,0,1-2.15-.74,2.45,2.45,0,0,1-.35-3,3.68,3.68,0,0,1,3.77-1.8l.15.23a38.64,38.64,0,0,1,3.29,6c.18.41.35.82.52,1.23.24.58.46,1.17.67,1.75.05.13.09.26.13.39a12.84,12.84,0,0,1-2.89,3.35c-2.39,2.16-5.48,5.11-3.66,8.68a4.6,4.6,0,0,0,4.44,2.53,2.66,2.66,0,0,1-1.58-1.63,2.45,2.45,0,0,1,1-2.84,3.83,3.83,0,0,1,5.13,1c0,.14,0,.28,0,.42a65.18,65.18,0,0,1-1.69,21.66,1.21,1.21,0,0,1-2.35,0v0a54.75,54.75,0,0,0-5.47-13,48.81,48.81,0,0,0-3.9-5.75c-.21-.27-.44-.54-.66-.81a1.64,1.64,0,0,0-2.85,1.4c.5,2.48.92,4.92,1.26,7.35a102.23,102.23,0,0,1,.95,12.41c0,2,0,4-.15,6s-.33,3.94-.59,5.87A73.53,73.53,0,0,1,253.8,417l-1.65,5.38a3.39,3.39,0,0,0,3.45,4.37l5.82-.36,1.18-.07c.34,0,.68,0,1-.09.66-.07,1.3-.16,1.93-.25,1.27-.17,2.51-.41,3.74-.66a60.75,60.75,0,0,0,7.22-2,59.18,59.18,0,0,0,6.87-2.91,57.92,57.92,0,0,0,6.42-3.76,50.7,50.7,0,0,0,10.93-9.93,42.35,42.35,0,0,0,5.6-8.89,1.52,1.52,0,0,0-2.09-2c-3,1.59-5.83,3.1-8.69,4.46-2,.91-3.93,1.82-5.9,2.65l-6.07,2.69a0,0,0,0,1-.05,0c4.65-13.34,8.76-34.1.41-54.79-.74-1.85-1.58-3.65-2.49-5.42a23.77,23.77,0,0,0,5.88-3.24l.11-.07a50.34,50.34,0,0,1,30.39-10.46H443.62c2.62,0,3.83,1.94,2.94,4.41a4.57,4.57,0,0,0,4.25,6.21H498.6a4.47,4.47,0,0,0,4.46-4.47V319.76ZM78,264.13c8.06,1.17,9.12,1.91,23.2,1.73,7.92-.09,15.76,9.23.57,9.8-25.07,1-15.31,1-26.36.71a5.21,5.21,0,0,1-5-4.33c0-.05,0-.1,0-.14A6.71,6.71,0,0,1,78,264.13ZM135.77,286a4.76,4.76,0,0,1-2.41,8.71c-31.41,1.59-47.65,1.24-59.61.94a2.46,2.46,0,0,1-2.4-2.67v-.08a5.83,5.83,0,0,1,6-5.35c4.51.1,10.28.19,17,.19C108.22,287.69,116,287.32,135.77,286Zm50.11,26.69H67.26l.9-2.92a4.28,4.28,0,0,1,4.24-3.07c5,.13,12.9.28,22.9.28,17.84,0,42.31-.49,68.65-2.45a51,51,0,0,1,22.57,3.41l.24.09A2.41,2.41,0,0,1,185.88,312.64Zm88.17-34.8c-1-2.2-2.07-4.48-3.39-6.84a5.54,5.54,0,0,0-9.66,5.41,60.35,60.35,0,0,1,5.72,14c-.81-1.06-1.47-2-2.06-2.81-2.71-3.81-4.45-6.06-11.32-11.46a5.54,5.54,0,0,0-6.85,8.72c5.94,4.66,7,6.17,9.16,9.17.73,1,1.56,2.19,2.68,3.64-.16.12-.31.26-.46.39a32.87,32.87,0,0,0-13.37-7.77,5.54,5.54,0,1,0-3.35,10.56,21.46,21.46,0,0,1,10.14,6.35,29.36,29.36,0,0,0-2,6.45,149.43,149.43,0,0,0-33.77-13.53q-2.76-.78-5.46-1.59a7.26,7.26,0,0,1-5.06-8.37s0,0,0-.06a19.24,19.24,0,0,1,2-5.24,15,15,0,0,1,4-4.28,15.9,15.9,0,0,0-5.4,3.07,22.36,22.36,0,0,0-4.05,5,32.58,32.58,0,0,0-2.65,6c0,.05,0,.11-.05.17q-5.17-1.86-10.05-3.91a6.54,6.54,0,0,1-3.57-8.56l0-.06a21,21,0,0,1,3.06-4.88,16.1,16.1,0,0,1,4.74-3.64,17.39,17.39,0,0,0-5.94,2.19,24.08,24.08,0,0,0-5,4.27,33.38,33.38,0,0,0-3.84,5.42c-.07.11-.13.23-.2.35q-4.35-2.18-8.44-4.52a6.81,6.81,0,0,1-2.3-9.69l0-.05a23.1,23.1,0,0,1,4-4.39,17.45,17.45,0,0,1,5.4-2.91,18.19,18.19,0,0,0-6.34,1.28,26.15,26.15,0,0,0-5.77,3.41,36.57,36.57,0,0,0-4.86,4.7c-.26.3-.51.6-.76.91q-3.47-2.43-6.67-5a7.33,7.33,0,0,1-.85-10.61,5.33,5.33,0,0,1,.39-.41,25.71,25.71,0,0,1,4.81-3.78,18.49,18.49,0,0,1,5.94-2.09,19.53,19.53,0,0,0-6.62.34,28.91,28.91,0,0,0-6.35,2.5,39.21,39.21,0,0,0-5.72,3.85c-.53.41-1,.85-1.54,1.29q-2.91-2.93-5.53-6a7,7,0,0,1,.7-9.75c.68-.6,1.29-1.11,1.73-1.43a27.67,27.67,0,0,1,5.49-3,18.67,18.67,0,0,1,6.31-1.21,19.28,19.28,0,0,0-6.72-.62,30.1,30.1,0,0,0-6.78,1.53,42.07,42.07,0,0,0-6.38,2.9c-.72.4-1.42.82-2.12,1.26-.75-1.14-1.82-3-2.9-4.92a9.1,9.1,0,0,1,3.74-12.58l.06,0a29.11,29.11,0,0,1,6-2.23,18.51,18.51,0,0,1,6.53-.28,19.58,19.58,0,0,0-6.67-1.59,31.41,31.41,0,0,0-7,.54,44.36,44.36,0,0,0-6.83,1.89c-.79.28-1.56.59-2.34.91q-1.16-3-2.05-5.85a8.66,8.66,0,0,1,4.88-10.54c.71-.3,1.33-.55,1.78-.69a28.33,28.33,0,0,1,6.33-1.35,17.92,17.92,0,0,1,6.55.68,18.73,18.73,0,0,0-6.44-2.55,31,31,0,0,0-7.08-.48,45.76,45.76,0,0,0-7.09.86q-1.05.19-2.1.45c-.28-1.84-.49-3.55-.64-5.11a10.13,10.13,0,0,1,8-10.85c.16,0,.31-.06.44-.08a26.94,26.94,0,0,1,6.47-.43,16.83,16.83,0,0,1,6.39,1.64,17.94,17.94,0,0,0-6-3.48,30.52,30.52,0,0,0-7-1.49,47.32,47.32,0,0,0-7.14-.19l-1.33.07c.08-1.81.21-3.61.39-5.39a10.33,10.33,0,0,1,10-9.21h.07a27.24,27.24,0,0,1,6.43.5,14.84,14.84,0,0,1,6,2.6,15.86,15.86,0,0,0-5.35-4.36,30,30,0,0,0-6.65-2.47,50.24,50.24,0,0,0-7-1.22l-.79-.07c.55-2,1.16-4,1.85-5.95a10.48,10.48,0,0,1,11.06-7h.06a26.32,26.32,0,0,1,6.2,1.42,13.67,13.67,0,0,1,5.42,3.49,14.64,14.64,0,0,0-4.51-5.13,29.38,29.38,0,0,0-6.13-3.4,48.23,48.23,0,0,0-6.54-2.18,99,99,0,0,1,5.33-8.89,6.73,6.73,0,0,1,7.32-2.72l2.14.57a25,25,0,0,1,5.79,2.29,12.56,12.56,0,0,1,4.63,4.28,13.36,13.36,0,0,0-3.47-5.75,27.35,27.35,0,0,0-5.44-4.26,47.35,47.35,0,0,0-4.88-2.58,112.23,112.23,0,0,1,8.28-9,5.2,5.2,0,0,1,5.75-1.06l1.92.84a23,23,0,0,1,5.2,3.11,11.57,11.57,0,0,1,3.67,4.93,12.57,12.57,0,0,0-2.27-6.18,25.86,25.86,0,0,0-4.57-5c-1-.89-2.12-1.72-3.24-2.51,3-2.51,6.08-4.94,9.37-7.26l1.79-1.26a3.46,3.46,0,0,1,3.88-.07l1.7,1.11a20.92,20.92,0,0,1,4.45,3.84,10.9,10.9,0,0,1,2.58,5.4,11.78,11.78,0,0,0-1-6.36,23.4,23.4,0,0,0-3.52-5.64c-.63-.77-1.3-1.5-2-2.22,4.37-2.67,8.95-5.16,13.7-7.45a2,2,0,0,1,2.22.35l1.53,1.44a19,19,0,0,1,3.56,4.47,10.39,10.39,0,0,1,1.4,5.66,11.34,11.34,0,0,0,.37-6.29,21.73,21.73,0,0,0-2.33-6.1c-.39-.7-.81-1.39-1.25-2.06C210,83.81,236.88,78,264.28,77.44c33.68,2.66,64.29,14.28,87.38,32.4,22.56,17.71,36,40.82,36,61.81a41.07,41.07,0,0,1-6.78,23.14c-14.06,15.92-33,15-42.48,10.44,2.27-1,4.3-1.8,6.3-2.71,9.25-4.21,17.57-9.65,23.67-18,2.85-3.89,4-6.77,4.25-10.58C352.31,188.32,329.26,195.6,305,201a19.3,19.3,0,0,1,5.65-8.15c2.86-2.49,5.91-4.79,9-7,4.43-3.16,8.94-6.23,12.33-10.59a18.48,18.48,0,0,0,4.34-10.84c-17.5,9.72-35.35,19-50.62,32.27a65.61,65.61,0,0,1-24.93,13.35,103.9,103.9,0,0,0-10,3.62,15.27,15.27,0,0,0-7.51,6.66q-1.65,2.79-3.49,5.46a17.65,17.65,0,0,1-12,7.52,62.61,62.61,0,0,0-8.8,2c-6.9,2.25-10.33,8.25-9,15.42a22.54,22.54,0,0,0,8.46,13.77c3.76,3,3.16,6.86,7.5,4.88,4-1.82,10.93-6.89,14.87-8.83,9.33-4.6,46.21-10.14,52.67-5.34.52.38,1.07.73,1.62,1.08,0,0,.12,0,.69-.06-.36-5.23-.73-10.48-1.11-15.91a45.72,45.72,0,0,1,13.34,6.47c.16-.11.31-.23.46-.35-.77-2,9-6.06,21.16-10.62a129.62,129.62,0,0,0,23.84-4.46l1.25-.38a7.41,7.41,0,0,1,1.45.23,15.92,15.92,0,0,1,4.8,2.45c3.19,2.18,7.52,4.94,11.16,2a5.22,5.22,0,0,0,1.67-5.72,3,3,0,0,1-5.05,1.77,4.44,4.44,0,0,1-.34-6.11c.22-.1.43-.21.64-.33.74-.37,1.48-.75,2.2-1.16.25-.13.5-.26.74-.41a6.83,6.83,0,0,1,1,.08,18.17,18.17,0,0,1,5.55,2.14c3.83,2,9,4.57,11.89.79a6,6,0,0,0,.18-6.6,3,3,0,0,1-.88,2.67,3,3,0,0,1-3.8-.06,5.63,5.63,0,0,1-1.62-7.47,9.55,9.55,0,0,1,.57-.8c.48-.42.95-.87,1.41-1.34.18-.16.37-.34.55-.53l.2-.2.34,0a6.76,6.76,0,0,1,1-.41l.19.29-.59.23c.38.08.77.18,1.15.28,2.89.76,6.76,1.66,8.63-1.46a4,4,0,0,0-.27-4.6,2.29,2.29,0,0,1-3.21,2.6,3.28,3.28,0,0,1-2-3c.07-.09.14-.17.2-.26q1.56-2.1,2.91-4.31l.09-.15s0,0,0,0a2.79,2.79,0,0,0,.19-.33,30.69,30.69,0,0,1,3.19-.19c4.34-.07,10.08-.33,10.8-5.05a6,6,0,0,0-3-5.86,3.06,3.06,0,0,1,.52,2.76,3,3,0,0,1-3.36,1.78,5.64,5.64,0,0,1-3.88-2.18c0-.1.08-.2.11-.3a56,56,0,0,0,2.39-8.21c.06-.24.11-.49.15-.74l.1-.1a18,18,0,0,1,5-3.19c3.91-1.87,9-4.49,7.71-9.08a6,6,0,0,0-5.19-4.07,3,3,0,0,1,1.62,2.29,3,3,0,0,1-2.31,3,5.64,5.64,0,0,1-5.83-1.4v-.42a68.16,68.16,0,0,0-1-10.29l-.09-.54c.6-.78,1.25-1.53,1.91-2.27,3.5-3.91,8-9.24,4.49-14.23a7.12,7.12,0,0,0-7.57-2.71A3.71,3.71,0,0,1,403,147a6.24,6.24,0,0,1-3.31,1.46c-.05-.12-.09-.24-.13-.37a94.14,94.14,0,0,0-8.82-18.56l-.21-.33c.17-.77.4-1.54.64-2.31,1.14-3.62,2.52-8.46-1.21-10.37a5.26,5.26,0,0,0-5.71.89,2.65,2.65,0,0,1,2.44.34,2.61,2.61,0,0,1,.55,3.28,4.81,4.81,0,0,1-1.14,1.56,1.77,1.77,0,0,0-.16-.22,127,127,0,0,0-24.41-25.13l-.18-.13A2.46,2.46,0,0,1,364,93c19.27,9.59,34.32,24.67,45.52,48,.92,1.91,1.75,3.65,2.51,5.25,6,12.62,8.45,17.85,21.15,30.54,10.51,10.52,15.67,30.35,16.7,64.32a5.9,5.9,0,0,1-4.25,5.79,3.18,3.18,0,0,1-1.15.13,8.19,8.19,0,0,0-4.82,1.32,38.78,38.78,0,0,1-23.42,5.76c-6.45-.4-11.76,4.94-19.42,4.17a5.54,5.54,0,0,0-1.1,11c44.34,4.42,67-4.65,81-6.5a.27.27,0,0,1,.29.28c-.21,4.09-.23,3.83-.3,4.13a5.44,5.44,0,0,1-3.63,3.89c-14.12,4.47-62.11,16.65-126.65.66-17-4.22-32.2-3.61-45.09,1.83A53,53,0,0,0,294,277.3a1.85,1.85,0,0,1-2.08-3.05,25.92,25.92,0,0,1,5.71-3.07,2.83,2.83,0,0,0,1.65-1.81c1.91-6-3.29-9.63-7.43-7.78A39,39,0,0,0,274.05,277.84Zm99.54-55,.05.12c-.13,0-.27.05-.4.09A2.5,2.5,0,0,0,373.59,222.8Zm-1.19,89.84H297.47c0-.19-.09-.39-.14-.58a8.29,8.29,0,0,1,4.46-9.46c.6-.29,1.22-.56,1.88-.81,8.78-3.33,22.14-2.8,39.73,1.55,9.91,2.45,19.72,4.7,29.27,6.5A1.41,1.41,0,0,1,372.4,312.64Zm-26.34-20.06c-33.18-8.21-48.39-2.44-57.09,5.35h0a1.2,1.2,0,0,1-.13-1.67c8.95-10.68,25.54-21.07,54.87-13.79,41.95,10.4,77,9.17,99.06,6.32a208.27,208.27,0,0,0,27.43-5.35,3.34,3.34,0,0,1,4.21,3.23v.11a7.83,7.83,0,0,1-6.33,7.79C448.05,298.38,397.87,305.4,346.06,292.58Zm127.45,20.06h-27a.94.94,0,0,1-.16-1.87c11.58-2.1,20.76-4.63,26.61-5.84a3.68,3.68,0,0,1,4.33,2.64l0,.08A3.94,3.94,0,0,1,473.51,312.64Z"/><path d="M204.49,137.25a7.2,7.2,0,0,1-.31-1c-.08-.29-.12-.53-.17-.79a13.79,13.79,0,0,1-.22-1.47,20.88,20.88,0,0,1-.14-2.82,22.2,22.2,0,0,1,.2-2.73c.06-.45.12-.89.19-1.33l.3-1.3a25.45,25.45,0,0,1,4.31-9.08l1.5-1.86c.53-.58,1.1-1.11,1.65-1.66l.82-.8c.29-.25.59-.48.89-.72l1.77-1.4c1.22-.86,2.49-1.61,3.71-2.39l3.86-2L220,109.11c-.83,1.15-1.68,2.24-2.43,3.38l-1,1.77c-.16.29-.34.57-.49.86l-.4.92c-.26.6-.54,1.19-.77,1.79l-.56,1.82a17.06,17.06,0,0,0-.44,7l.13.81c.06.26.15.52.21.77a11.2,11.2,0,0,0,.51,1.48,9.53,9.53,0,0,0,.65,1.32,4.78,4.78,0,0,0,.37.55.92.92,0,0,0,.17.2c.05,0,.14.16.09,0a6.4,6.4,0,0,1-11.54,5.53Z"/><path class="cls-1" d="M253.46,231.72a10.8,10.8,0,0,1,6.76-4.33,13.74,13.74,0,0,1,4-.27,15.7,15.7,0,0,1,2,.31c.17,0,.33.08.5.12l.26,0a3.73,3.73,0,0,0,.46.09,11.86,11.86,0,0,0,3.72.23,63.06,63.06,0,0,0,6.5-1.42l.41.31a20.64,20.64,0,0,1-2.16,2.61,13.88,13.88,0,0,1-2.71,2.09,9.75,9.75,0,0,1-6.73,1.25c-1.17-.26-2.15-.65-3.22-.85a20.51,20.51,0,0,0-3.23-.4,22.16,22.16,0,0,0-3.26.12,18.24,18.24,0,0,0-3.22.57Z"/><path d="M264.14,85.21c-3.72,2.84-7.36,5.54-10.92,8.29s-7,5.57-10.24,8.54a84.83,84.83,0,0,0-9,9.53c-1.35,1.72-2.63,3.51-3.83,5.4s-2.22,3.89-3.26,6a24.77,24.77,0,0,1,1-7,33.82,33.82,0,0,1,2.78-6.6,44.51,44.51,0,0,1,8.95-11.09A58.43,58.43,0,0,1,251,90.14,48.23,48.23,0,0,1,264.14,85.21Z"/><path d="M301,91.66a87,87,0,0,0-18.23,7.64,116.69,116.69,0,0,0-16.17,10.84c-2.45,2.13-5,4.13-7.32,6.45l-1.78,1.68c-.6.56-1.21,1.1-1.75,1.71-1.12,1.2-2.25,2.38-3.4,3.56-.56.6-1.18,1.15-1.7,1.78s-1.07,1.26-1.62,1.88l-3.29,3.72c-2.14,2.53-4.15,5.19-6.45,7.71,1.32-3.1,2.79-6.16,4.39-9.15l2.69-4.32a38.63,38.63,0,0,1,2.89-4.2q1.56-2,3.16-4a19.29,19.29,0,0,1,1.69-1.93l1.76-1.86a49.87,49.87,0,0,1,3.65-3.62l3.87-3.38A73.5,73.5,0,0,1,281,95.68C287.39,93.14,294.17,91.37,301,91.66Z"/><path d="M336.9,115.14a99.06,99.06,0,0,0-11.79,1.76c-3.86.79-7.67,1.73-11.4,2.84a142.11,142.11,0,0,0-21.7,8.48A163.87,163.87,0,0,0,271.86,140c-6.5,4.41-12.73,9.27-19.05,14.28a90.18,90.18,0,0,1,16.16-18,96,96,0,0,1,20.4-13.45,89.23,89.23,0,0,1,23.26-7.67A75.42,75.42,0,0,1,324.8,114,50,50,0,0,1,336.9,115.14Z"/><path d="M431.21,206.43a37.68,37.68,0,0,0-6.23-7.86,18.92,18.92,0,0,0-7.91-4.53,21.27,21.27,0,0,0-4.53-.68,32.19,32.19,0,0,0-4.77.25,89.08,89.08,0,0,0-10,2.07,25.28,25.28,0,0,1,9.25-5.3,22.43,22.43,0,0,1,5.46-1,19.17,19.17,0,0,1,5.67.62,17.24,17.24,0,0,1,9.26,6.4A18.88,18.88,0,0,1,431.21,206.43Z"/><path d="M423.76,185.38a15.12,15.12,0,0,0-6.25-3.28,17.79,17.79,0,0,0-6.75-.29,32.39,32.39,0,0,0-3.43.59c-1.13.3-2.28.63-3.44.95s-2.32.73-3.47,1.15-2.33.85-3.59,1.17a34.53,34.53,0,0,1,2.89-2.5c1-.75,2.14-1.39,3.25-2,.56-.32,1.17-.54,1.76-.81s1.19-.51,1.81-.71a20.83,20.83,0,0,1,3.87-.84,14.52,14.52,0,0,1,7.92,1.08A10.27,10.27,0,0,1,423.76,185.38Z"/><path d="M421.1,218.72a23.17,23.17,0,0,0-4.67-8.64,16.33,16.33,0,0,0-7.61-4.65,35.11,35.11,0,0,0-9.47-1.2c-3.32,0-6.72.19-10.29.23a30.33,30.33,0,0,1,10-3.67,24,24,0,0,1,11,.42,15.94,15.94,0,0,1,9.13,6.84A14.84,14.84,0,0,1,421.1,218.72Z"/><path d="M407.11,226.37a18.57,18.57,0,0,0-5.13-8.65,17.36,17.36,0,0,0-8.46-4,44.67,44.67,0,0,0-10-.73c-3.47.06-7,.35-10.68.44a35.46,35.46,0,0,1,10.31-3.77,28,28,0,0,1,11.29-.11,19.51,19.51,0,0,1,5.54,2.05,15,15,0,0,1,4.53,3.93A13.67,13.67,0,0,1,407.11,226.37Z"/><path d="M373.51,154.75a193.82,193.82,0,0,0-29.95-1.52,199.36,199.36,0,0,0-29.41,2.82c-4.85.8-9.67,1.82-14.45,3-2.4.54-4.76,1.25-7.15,1.88-1.2.3-2.36.72-3.55,1.07s-2.39.67-3.55,1.08c-9.44,3-18.72,6.74-28.12,10.69a110.83,110.83,0,0,1,26-16.12,122.08,122.08,0,0,1,14.48-5.37c2.46-.8,5-1.37,7.48-2s5-1.11,7.59-1.52a121.29,121.29,0,0,1,30.85-1.32A110,110,0,0,1,359,149.82c2.49.61,5,1.27,7.4,2.09A53.47,53.47,0,0,1,373.51,154.75Z"/></svg>